<?xml version="1.0" encoding="utf-8"?>
<!-- Generator: Adobe Illustrator 16.0.3, SVG Export Plug-In . SVG Version: 6.00 Build 0)  -->
<!DOCTYPE svg PUBLIC "-//W3C//DTD SVG 1.1//EN" "http://www.w3.org/Graphics/SVG/1.1/DTD/svg11.dtd">
<svg version="1.1" id="bottom" xmlns="http://www.w3.org/2000/svg" xmlns:xlink="http://www.w3.org/1999/xlink" x="0px" y="0px"
	 width="257.95px" height="102.047px" viewBox="0 0 257.95 102.047" enable-background="new 0 0 257.95 102.047"
	 xml:space="preserve">
<path fill="none" stroke="#231815" stroke-width="0.25" stroke-miterlimit="10" d="M257.953,93.541c0,4.678-3.826,8.504-8.504,8.504
	H8.505c-4.678,0-8.504-3.826-8.504-8.504V8.504C0.001,3.827,3.827,0,8.505,0h240.944c4.678,0,8.504,3.827,8.504,8.504V93.541z"/>
<path fill="none" stroke="#231815" stroke-width="0.25" stroke-miterlimit="10" d="M14.176,75.115c0,1.559-1.275,2.834-2.834,2.834
	H11.34c-1.559,0-2.834-1.275-2.834-2.834V26.929c0-1.559,1.275-2.834,2.834-2.834h0.001c1.559,0,2.834,1.275,2.834,2.834V75.115z"/>
<circle fill="none" stroke="#231815" stroke-width="0.25" stroke-miterlimit="10" cx="9.922" cy="9.921" r="4.252"/>
<circle fill="none" stroke="#231815" stroke-width="0.25" stroke-miterlimit="10" cx="9.922" cy="92.123" r="4.252"/>
<circle fill="none" stroke="#231815" stroke-width="0.25" stroke-miterlimit="10" cx="248.033" cy="92.123" r="4.252"/>
<circle fill="none" stroke="#231815" stroke-width="0.25" stroke-miterlimit="10" cx="248.033" cy="9.921" r="4.252"/>
</svg>
