<?xml version="1.0" encoding="utf-8"?>
<!-- Generator: Adobe Illustrator 16.0.3, SVG Export Plug-In . SVG Version: 6.00 Build 0)  -->
<!DOCTYPE svg PUBLIC "-//W3C//DTD SVG 1.1//EN" "http://www.w3.org/Graphics/SVG/1.1/DTD/svg11.dtd">
<svg version="1.1" id="middle" xmlns="http://www.w3.org/2000/svg" xmlns:xlink="http://www.w3.org/1999/xlink" x="0px" y="0px"
	 width="257.95px" height="102.047px" viewBox="0 0 257.95 102.047" enable-background="new 0 0 257.95 102.047"
	 xml:space="preserve">
<circle fill="none" stroke="#231815" stroke-width="0.25" stroke-miterlimit="10" cx="9.922" cy="9.921" r="4.252"/>
<circle fill="none" stroke="#231815" stroke-width="0.25" stroke-miterlimit="10" cx="9.922" cy="92.123" r="4.252"/>
<circle fill="none" stroke="#231815" stroke-width="0.25" stroke-miterlimit="10" cx="248.033" cy="92.123" r="4.252"/>
<circle fill="none" stroke="#231815" stroke-width="0.25" stroke-miterlimit="10" cx="248.033" cy="9.921" r="4.252"/>
<path fill="none" stroke="#231815" stroke-width="0.25" stroke-miterlimit="10" d="M17.718,19.844c-0.39,0-0.708,0.319-0.708,0.708
	v2.834c0,0.39-0.319,0.708-0.708,0.708l-4.961,0h0c-1.559,0-2.834,1.275-2.834,2.834v48.187c0,1.559,1.275,2.834,2.834,2.834h0.001
	h4.959c0.39,0,0.708,0.32,0.708,0.709v2.836c0,0.389,0.319,0.709,0.708,0.709h190.63v7.793c0,1.17,0.957,2.127,2.125,2.127h17.01
	c1.168,0,2.125-0.955,2.125-2.125v-7.795h27.637c0.391,0,0.709,0.318,0.709,0.707v10.631c0,4.678-3.826,8.504-8.504,8.504H8.505
	c-4.678,0-8.504-3.826-8.504-8.504L0,8.504C0,3.827,3.826,0,8.504,0h240.945c4.676,0,8.504,3.827,8.504,8.504v10.63
	c0,0.39-0.32,0.708-0.709,0.708L17.718,19.844z"/>
</svg>
