<?xml version="1.0" encoding="utf-8"?>
<!-- Generator: Adobe Illustrator 16.0.3, SVG Export Plug-In . SVG Version: 6.00 Build 0)  -->
<!DOCTYPE svg PUBLIC "-//W3C//DTD SVG 1.1//EN" "http://www.w3.org/Graphics/SVG/1.1/DTD/svg11.dtd">
<svg version="1.1" id="top" xmlns="http://www.w3.org/2000/svg" xmlns:xlink="http://www.w3.org/1999/xlink" x="0px" y="0px"
	 width="257.95px" height="102.047px" viewBox="0 0 257.95 102.047" enable-background="new 0 0 257.95 102.047"
	 xml:space="preserve">
<g>
	<circle fill="none" stroke="#231815" stroke-width="0.25" stroke-miterlimit="10" cx="9.922" cy="9.921" r="4.252"/>
	<circle fill="none" stroke="#231815" stroke-width="0.25" stroke-miterlimit="10" cx="9.922" cy="92.123" r="4.252"/>
	<circle fill="none" stroke="#231815" stroke-width="0.25" stroke-miterlimit="10" cx="248.033" cy="92.123" r="4.252"/>
	<circle fill="none" stroke="#231815" stroke-width="0.25" stroke-miterlimit="10" cx="248.033" cy="9.921" r="4.252"/>
	<path fill="none" stroke="#231815" stroke-width="0.25" stroke-miterlimit="10" d="M205.654,82.203
		c0.391,0,0.709,0.318,0.709,0.709c0,0,0,1.242,0,2.125c0,1.879,1.523,3.4,3.4,3.4c1.879,0,3.404-1.521,3.404-3.4
		c0-0.939-0.002-2.125-0.002-2.125c0-0.391,0.318-0.709,0.707-0.709h10.207c0.389,0,0.709,0.318,0.709,0.709c0,0,0,1.115,0,2.125
		c0,1.879,1.521,3.4,3.4,3.4s3.402-1.521,3.402-3.4c0-0.762,0-2.125,0-2.125c0-0.391,0.32-0.709,0.709-0.709h24.943
		c0.391,0,0.709,0.318,0.709,0.707v10.631c0,4.678-3.826,8.504-8.504,8.504H8.505c-4.678,0-8.504-3.826-8.504-8.504L0,8.504
		C0,3.827,3.826,0,8.504,0h240.945c4.676,0,8.504,3.827,8.504,8.504v10.63c0,0.39-0.32,0.708-0.709,0.708L17.718,19.844
		c-0.39,0-0.708,0.319-0.708,0.708v2.834c0,0.39-0.319,0.708-0.708,0.708l-4.961,0h0c-1.559,0-2.834,1.275-2.834,2.834v48.187
		c0,1.559,1.275,2.834,2.834,2.834h0.001h4.959c0.39,0,0.708,0.32,0.708,0.709v2.836c0,0.389,0.319,0.709,0.708,0.709H205.654z"/>
</g>
</svg>
